<svg xmlns="http://www.w3.org/2000/svg" viewBox="0 0 256 128" role="img" aria-label="Cloudflare">
  <path fill="#F38020" d="M174.6 76.7c-3.8-17.2-19.2-30.1-37.7-30.1-16.6 0-30.8 10.4-36.3 25.1-3.4-2.1-7.4-3.3-11.7-3.3-12.2 0-22.1 9.9-22.1 22.1 0 2.2.3 4.3.9 6.3h106.9z"></path>
  <path fill="#FAAE40" d="M196.5 96.8c10.1 0 18.3-8.2 18.3-18.3s-8.2-18.3-18.3-18.3c-2.2 0-4.4.4-6.4 1.1-5.5-20.1-23.8-34.9-45.7-34.9-20.4 0-37.8 12.9-44.5 31 8.4-7.2 19.3-11.6 31.2-11.6 22.8 0 41.9 16 46.7 37.4h18.7z"></path>
  <path fill="#FFFFFF" opacity=".9" d="M80.2 101.6h117.1c8.9 0 16.9-5.5 20.1-13.8-5 5.5-12.1 9-20.1 9H70.8c2.4 2.9 5.7 4.8 9.4 4.8z"></path>
</svg>