<svg xmlns="http://www.w3.org/2000/svg" viewBox="0 0 24 24" fill="#FFFFFF" aria-hidden="true"><path d="M12 .5A11.5 11.5 0 0 0 8.36 22.9c.58.11.79-.25.79-.56v-2.02c-3.22.7-3.9-1.38-3.9-1.38-.53-1.34-1.29-1.7-1.29-1.7-1.05-.72.08-.71.08-.71 1.16.08 1.78 1.2 1.78 1.2 1.04 1.77 2.72 1.26 3.38.96.1-.75.4-1.26.73-1.55-2.57-.29-5.27-1.29-5.27-5.73 0-1.27.45-2.3 1.2-3.12-.12-.29-.52-1.48.11-3.08 0 0 .98-.31 3.2 1.19A11.1 11.1 0 0 1 12 6.01c.99 0 1.98.13 2.91.39 2.22-1.5 3.2-1.19 3.2-1.19.63 1.6.23 2.79.11 3.08.75.82 1.2 1.85 1.2 3.12 0 4.45-2.71 5.43-5.29 5.72.42.36.79 1.07.79 2.16v3.2c0 .31.21.68.8.56A11.5 11.5 0 0 0 12 .5Z"/></svg>